<mxfile host="app.diagrams.net" modified="2023-10-02T15:43:23.214Z" agent="Mozilla/5.0 (X11; Linux x86_64; rv:109.0) Gecko/20100101 Firefox/114.0" etag="V2z4TDG3T5arJyigyQYP" version="22.0.0" type="github">
  <diagram name="PÃ¡gina-1" id="OtH4-Akx2i9zdQnMNab2">
    <mxGraphModel dx="1434" dy="795" grid="1" gridSize="10" guides="1" tooltips="1" connect="1" arrows="1" fold="1" page="1" pageScale="1" pageWidth="827" pageHeight="1169" math="0" shadow="0">
      <root>
        <mxCell id="0" />
        <mxCell id="1" parent="0" />
        <mxCell id="sCh7ba8boINgbhCvGgg5-1" value="&lt;font face=&quot;Times New Roman&quot;&gt;cliente&lt;/font&gt;" style="whiteSpace=wrap;html=1;align=center;fillColor=#dae8fc;strokeColor=#6c8ebf;" vertex="1" parent="1">
          <mxGeometry x="320" y="160" width="130" height="60" as="geometry" />
        </mxCell>
        <mxCell id="sCh7ba8boINgbhCvGgg5-2" value="&lt;font face=&quot;Times New Roman&quot;&gt;coche&lt;/font&gt;" style="whiteSpace=wrap;html=1;align=center;fillColor=#dae8fc;strokeColor=#6c8ebf;" vertex="1" parent="1">
          <mxGeometry x="320" y="390" width="130" height="60" as="geometry" />
        </mxCell>
        <mxCell id="sCh7ba8boINgbhCvGgg5-3" value="&lt;font face=&quot;Times New Roman&quot;&gt;concesionario&lt;/font&gt;" style="whiteSpace=wrap;html=1;align=center;fillColor=#dae8fc;strokeColor=#6c8ebf;" vertex="1" parent="1">
          <mxGeometry x="320" y="610" width="130" height="55" as="geometry" />
        </mxCell>
        <mxCell id="sCh7ba8boINgbhCvGgg5-4" value="&lt;font face=&quot;Times New Roman&quot;&gt;compra&lt;/font&gt;" style="shape=rhombus;perimeter=rhombusPerimeter;whiteSpace=wrap;html=1;align=center;fillColor=#d5e8d4;strokeColor=#82b366;" vertex="1" parent="1">
          <mxGeometry x="330" y="270" width="120" height="60" as="geometry" />
        </mxCell>
        <mxCell id="sCh7ba8boINgbhCvGgg5-5" value="&lt;font face=&quot;Times New Roman&quot;&gt;revisa&lt;/font&gt;" style="shape=rhombus;perimeter=rhombusPerimeter;whiteSpace=wrap;html=1;align=center;fillColor=#d5e8d4;strokeColor=#82b366;" vertex="1" parent="1">
          <mxGeometry x="330" y="490" width="120" height="60" as="geometry" />
        </mxCell>
      </root>
    </mxGraphModel>
  </diagram>
</mxfile>
